<svg width="331" height="72" viewBox="0 0 331 72" fill="none" xmlns="http://www.w3.org/2000/svg">
<path d="M8.39201 36.656V31.6H13.384V36.656H8.39201ZM3.78401 15.216L10.888 22.448L18.056 15.28L25.224 22.448L32.328 15.216L35.912 18.864L25.224 29.552L18.056 22.448L10.888 29.552L0.200012 18.8L3.78401 15.216ZM3.78401 0.94397L10.888 8.11197L18.056 0.94397L25.224 8.11197L32.328 0.94397L35.912 4.52797L25.224 15.216L18.056 8.11197L10.888 15.216L0.200012 4.52797L3.78401 0.94397ZM22.728 31.6H27.72V36.656H22.728V31.6Z" fill="white"/>
<path d="M63.637 36.656V18.8H77.909V23.856H68.629V36.656H63.637ZM42.325 18.8H56.661V36.656H51.669V23.856H42.325V18.8ZM42.389 9.83997H47.701V14.896H42.389V9.83997ZM42.389 0.94397H78.037V5.93597H42.389V0.94397ZM72.597 9.83997H77.909V14.896H72.597V9.83997Z" fill="white"/>
<path d="M105.762 36.656V18.8H120.034V23.856H110.754V36.656H105.762ZM84.45 18.8H98.786V36.656H93.794V23.856H84.45V18.8ZM84.514 9.83997H89.826V14.896H84.514V9.83997ZM84.514 0.94397H120.162V5.93597H84.514V0.94397ZM114.722 9.83997H120.034V14.896H114.722V9.83997Z" fill="white"/>
<path d="M155.119 25.968L162.287 33.072L158.703 36.656L148.015 25.968L155.119 18.8L148.015 11.696L158.703 1.00797L162.287 4.59197L155.183 11.696L162.287 18.864L155.119 25.968ZM126.575 0.94397H144.431V5.93597H131.567V31.6H144.431V36.592H126.575V0.94397Z" fill="white"/>
<path d="M168.764 33.008L190.14 11.632L186.556 8.11197L179.388 15.216L168.7 4.52797L172.284 0.94397L179.388 8.04797L186.556 0.94397L193.724 8.11197L200.828 0.94397L204.412 4.52797L182.972 25.968L186.556 29.488L193.66 22.384L197.244 25.904V25.968L204.348 33.008L200.764 36.592L193.66 29.552L186.556 36.656L179.388 29.552V29.488L172.22 36.656L168.764 33.008Z" fill="white"/>
<path d="M219.017 36.656V31.6H224.009V36.656H219.017ZM214.409 15.216L221.513 22.448L228.681 15.28L235.849 22.448L242.953 15.216L246.537 18.864L235.849 29.552L228.681 22.448L221.513 29.552L210.825 18.8L214.409 15.216ZM214.409 0.94397L221.513 8.11197L228.681 0.94397L235.849 8.11197L242.953 0.94397L246.537 4.52797L235.849 15.216L228.681 8.11197L221.513 15.216L210.825 4.52797L214.409 0.94397ZM233.353 31.6H238.345V36.656H233.353V31.6Z" fill="white"/>
<path d="M288.662 31.664V36.656H253.014V31.664H288.662ZM252.95 21.616H288.598V26.672H252.95V21.616ZM253.014 11.632H268.118V16.624H253.014V11.632ZM268.118 0.94397H273.494V5.93597H268.118V0.94397ZM273.494 11.632H288.662V16.624H273.494V11.632Z" fill="white"/>
<path d="M309.347 22.384H330.787V36.656H325.795V27.44H309.347V22.384ZM295.075 22.384H300.067V31.664H309.411V36.656H295.075V22.384ZM295.075 0.94397H300.067V10.16H309.411V15.216H295.075V0.94397ZM309.347 0.94397H330.787V15.216H325.795V5.93597H309.347V0.94397ZM315.107 31.6H320.099V36.592H315.107V31.6ZM315.107 10.16H320.099V15.216H315.107V10.16Z" fill="white"/>
<path d="M13.1983 63.9028L10.0324 55.6996C9.93858 55.4557 9.84008 55.1743 9.7369 54.8554C9.63371 54.527 9.53522 54.18 9.44141 53.8141C9.24443 54.5739 9.04275 55.2071 8.83638 55.7137L5.67048 63.9028H13.1983ZM18.8828 71.3884H16.7722C16.5283 71.3884 16.3313 71.3274 16.1813 71.2055C16.0312 71.0835 15.9186 70.9287 15.8436 70.7411L13.9581 65.8727H4.91066L3.02519 70.7411C2.96891 70.91 2.86103 71.0601 2.70157 71.1914C2.5421 71.3227 2.34511 71.3884 2.1106 71.3884H0L8.06249 51.2251H10.8203L18.8828 71.3884Z" fill="white" fill-opacity="0.7"/>
<path d="M61.1161 69.0949V71.3884H49.6767V51.2251H52.3923V69.0949H61.1161Z" fill="white" fill-opacity="0.7"/>
<path d="M103.713 69.0949V71.3884H92.2734V51.2251H94.9891V69.0949H103.713Z" fill="white" fill-opacity="0.7"/>
<path d="M145.184 54.377C145.1 54.5177 145.006 54.6255 144.903 54.7006C144.809 54.7662 144.691 54.7991 144.551 54.7991C144.391 54.7991 144.204 54.7193 143.988 54.5599C143.772 54.4004 143.5 54.2269 143.172 54.0393C142.853 53.8423 142.464 53.664 142.004 53.5046C141.554 53.3451 141.005 53.2654 140.358 53.2654C139.748 53.2654 139.209 53.3498 138.74 53.5186C138.28 53.6781 137.891 53.8986 137.572 54.18C137.262 54.4614 137.028 54.7944 136.868 55.179C136.709 55.5542 136.629 55.9623 136.629 56.4031C136.629 56.966 136.765 57.435 137.037 57.8102C137.318 58.176 137.684 58.4903 138.135 58.7529C138.594 59.0156 139.11 59.2454 139.682 59.4424C140.264 59.63 140.855 59.827 141.455 60.0334C142.065 60.2397 142.656 60.4742 143.228 60.7369C143.81 60.9902 144.326 61.3138 144.776 61.7078C145.236 62.1018 145.601 62.5848 145.873 63.1571C146.155 63.7293 146.296 64.4328 146.296 65.2677C146.296 66.1494 146.145 66.9796 145.845 67.7582C145.545 68.5274 145.104 69.1981 144.523 69.7703C143.95 70.3425 143.242 70.7927 142.398 71.121C141.563 71.4494 140.611 71.6135 139.542 71.6135C138.228 71.6135 137.037 71.379 135.968 70.91C134.898 70.4316 133.984 69.789 133.224 68.9823L134.012 67.6878C134.087 67.5846 134.176 67.5002 134.279 67.4345C134.392 67.3595 134.514 67.322 134.645 67.322C134.767 67.322 134.903 67.3736 135.053 67.4767C135.213 67.5706 135.391 67.6925 135.588 67.8426C135.785 67.9927 136.01 68.1568 136.263 68.3351C136.516 68.5133 136.803 68.6774 137.121 68.8275C137.45 68.9776 137.82 69.1043 138.233 69.2074C138.646 69.3012 139.11 69.3481 139.626 69.3481C140.273 69.3481 140.85 69.259 141.357 69.0808C141.863 68.9026 142.29 68.654 142.637 68.3351C142.994 68.0067 143.266 67.6175 143.453 67.1672C143.641 66.7169 143.735 66.2151 143.735 65.6616C143.735 65.0519 143.594 64.5547 143.313 64.1701C143.041 63.7762 142.679 63.4478 142.229 63.1852C141.779 62.9225 141.263 62.7021 140.681 62.5239C140.1 62.3363 139.509 62.1487 138.908 61.961C138.308 61.7641 137.717 61.5389 137.136 61.2857C136.554 61.0324 136.038 60.7041 135.588 60.3007C135.137 59.8973 134.772 59.3955 134.49 58.7951C134.218 58.1854 134.082 57.435 134.082 56.5438C134.082 55.8309 134.218 55.1415 134.49 54.4755C134.772 53.8094 135.175 53.2185 135.7 52.7026C136.235 52.1866 136.887 51.7739 137.656 51.4643C138.435 51.1548 139.326 51 140.33 51C141.455 51 142.478 51.1782 143.397 51.5347C144.326 51.8911 145.142 52.4071 145.845 53.0825L145.184 54.377Z" fill="white" fill-opacity="0.7"/>
<path d="M184.243 61.6796C185.022 61.6796 185.707 61.5764 186.298 61.3701C186.898 61.1637 187.4 60.8776 187.803 60.5118C188.216 60.1366 188.525 59.691 188.732 59.1751C188.938 58.6591 189.041 58.0916 189.041 57.4725C189.041 56.1874 188.643 55.1837 187.845 54.4614C187.057 53.7391 185.857 53.3779 184.243 53.3779H181.007V61.6796H184.243ZM184.243 51.2251C185.519 51.2251 186.626 51.3752 187.564 51.6754C188.511 51.9662 189.295 52.3836 189.914 52.9277C190.533 53.4717 190.992 54.1284 191.293 54.8976C191.602 55.6668 191.757 56.5251 191.757 57.4725C191.757 58.4105 191.593 59.2689 191.264 60.0474C190.936 60.826 190.453 61.4967 189.815 62.0595C189.187 62.6224 188.403 63.0632 187.465 63.3822C186.537 63.6917 185.463 63.8465 184.243 63.8465H181.007V71.3884H178.291V51.2251H184.243Z" fill="white" fill-opacity="0.7"/>
<path d="M232.64 63.9028L229.474 55.6996C229.38 55.4557 229.282 55.1743 229.179 54.8554C229.076 54.527 228.977 54.18 228.883 53.8141C228.686 54.5739 228.485 55.2071 228.278 55.7137L225.112 63.9028H232.64ZM238.325 71.3884H236.214C235.97 71.3884 235.773 71.3274 235.623 71.2055C235.473 71.0835 235.36 70.9287 235.285 70.7411L233.4 65.8727H224.353L222.467 70.7411C222.411 70.91 222.303 71.0601 222.143 71.1914C221.984 71.3227 221.787 71.3884 221.552 71.3884H219.442L227.504 51.2251H230.262L238.325 71.3884Z" fill="white" fill-opacity="0.7"/>
<path d="M274.705 60.9902C275.493 60.9902 276.187 60.8964 276.787 60.7088C277.397 60.5118 277.903 60.2397 278.307 59.8927C278.719 59.5362 279.029 59.1141 279.235 58.6263C279.442 58.1385 279.545 57.5991 279.545 57.0082C279.545 55.8075 279.151 54.9023 278.363 54.2925C277.575 53.6828 276.393 53.3779 274.817 53.3779H271.834V60.9902H274.705ZM284.019 71.3884H281.599C281.102 71.3884 280.736 71.1961 280.502 70.8115L275.267 63.6073C275.108 63.3822 274.934 63.2227 274.747 63.1289C274.569 63.0257 274.287 62.9741 273.903 62.9741H271.834V71.3884H269.119V51.2251H274.817C276.093 51.2251 277.195 51.3565 278.124 51.6191C279.052 51.8724 279.817 52.2429 280.417 52.7307C281.027 53.2185 281.477 53.8094 281.768 54.5036C282.059 55.1884 282.204 55.9576 282.204 56.8112C282.204 57.5241 282.092 58.1901 281.867 58.8092C281.641 59.4283 281.313 59.9865 280.882 60.4836C280.459 60.9714 279.939 61.3888 279.32 61.7359C278.71 62.083 278.016 62.3456 277.237 62.5239C277.584 62.7209 277.885 63.007 278.138 63.3822L284.019 71.3884Z" fill="white" fill-opacity="0.7"/>
<path d="M317.619 60.0615H318.646C319.002 60.0615 319.289 60.0193 319.504 59.9349C319.72 59.8411 319.917 59.6863 320.095 59.4705L326.807 51.8724C326.995 51.6285 327.192 51.4596 327.398 51.3658C327.604 51.272 327.858 51.2251 328.158 51.2251H330.465L322.783 59.9067C322.595 60.1319 322.412 60.3195 322.234 60.4696C322.065 60.6103 321.882 60.7275 321.685 60.8213C321.938 60.9057 322.168 61.0324 322.375 61.2012C322.581 61.3607 322.783 61.5718 322.98 61.8344L331 71.3884H328.636C328.458 71.3884 328.303 71.379 328.172 71.3602C328.05 71.3321 327.942 71.2946 327.848 71.2477C327.754 71.1914 327.67 71.1304 327.595 71.0648C327.529 70.9897 327.464 70.9053 327.398 70.8115L320.447 62.8053C320.259 62.5708 320.058 62.4066 319.842 62.3128C319.626 62.2096 319.298 62.158 318.857 62.158H317.619V71.3884H314.903V51.2251H317.619V60.0615Z" fill="white" fill-opacity="0.7"/>
</svg>